<?xml version="1.0" encoding="UTF-8" standalone="no"?>
<!-- Generator: Adobe Illustrator 27.2.0, SVG Export Plug-In . SVG Version: 6.00 Build 0)  -->

<svg
   version="1.1"
   id="Layer_1"
   x="0px"
   y="0px"
   viewBox="0 0 1511.811 1700.7873"
   xml:space="preserve"
   sodipodi:docname="Magnetic-Stirrer-v2-Cut-Sheet-3mm.svg"
   width="400mm"
   height="450mm"
   inkscape:version="1.2.2 (b0a8486, 2022-12-01)"
   xmlns:inkscape="http://www.inkscape.org/namespaces/inkscape"
   xmlns:sodipodi="http://sodipodi.sourceforge.net/DTD/sodipodi-0.dtd"
   xmlns="http://www.w3.org/2000/svg"
   xmlns:svg="http://www.w3.org/2000/svg"><defs
   id="defs2201" /><sodipodi:namedview
   id="namedview2199"
   pagecolor="#ffffff"
   bordercolor="#000000"
   borderopacity="0.25"
   inkscape:showpageshadow="2"
   inkscape:pageopacity="0.0"
   inkscape:pagecheckerboard="0"
   inkscape:deskcolor="#d1d1d1"
   showgrid="false"
   inkscape:zoom="0.38723438"
   inkscape:cx="818.62565"
   inkscape:cy="954.20246"
   inkscape:window-width="1440"
   inkscape:window-height="771"
   inkscape:window-x="0"
   inkscape:window-y="25"
   inkscape:window-maximized="0"
   inkscape:current-layer="Layer_1"
   inkscape:document-units="mm" />
<style
   type="text/css"
   id="style1645">
	.st0{fill:none;stroke:#010101;stroke-width:0.7087;stroke-linecap:round;stroke-linejoin:round;stroke-miterlimit:10;}
</style>
<g
   id="g1692"
   transform="matrix(1.3315783,0,0,1.3315783,-6.8124918,-6.3151244)">
	<g
   id="LWPOLYLINE">
		<rect
   x="20.9"
   y="19.4"
   class="st0"
   width="510.20001"
   height="510.20001"
   id="rect1647" />
	</g>
	<g
   id="CIRCLE">
		<circle
   class="st0"
   cx="276"
   cy="274.5"
   r="113.4"
   id="circle1650" />
	</g>
	<g
   id="LWPOLYLINE_00000089567759027956202840000009096613883118076082_">
		<rect
   x="63.400002"
   y="27.9"
   class="st0"
   width="85"
   height="8.5"
   id="rect1653" />
	</g>
	<g
   id="LWPOLYLINE_00000064354514627872326120000005690166984114873733_">
		<rect
   x="403.60001"
   y="27.9"
   class="st0"
   width="85"
   height="8.5"
   id="rect1656" />
	</g>
	<g
   id="LWPOLYLINE_00000116231569347870345500000018317594567223196094_">
		<rect
   x="29.4"
   y="61.900002"
   class="st0"
   width="8.5"
   height="85"
   id="rect1659" />
	</g>
	<g
   id="LWPOLYLINE_00000141415377337397490900000003669119071561801602_">
		<rect
   x="63.400002"
   y="512.59998"
   class="st0"
   width="85"
   height="8.5"
   id="rect1662" />
	</g>
	<g
   id="LWPOLYLINE_00000148657624443715648630000001424034976559028118_">
		<rect
   x="403.60001"
   y="512.59998"
   class="st0"
   width="85"
   height="8.5"
   id="rect1665" />
	</g>
	<g
   id="LWPOLYLINE_00000164515388757443864510000001399429213178376113_">
		<rect
   x="29.4"
   y="402"
   class="st0"
   width="8.5"
   height="85"
   id="rect1668" />
	</g>
	<g
   id="LWPOLYLINE_00000010999756525206533270000011041604373829735562_">
		<rect
   x="514.09998"
   y="61.900002"
   class="st0"
   width="8.5"
   height="85"
   id="rect1671" />
	</g>
	<g
   id="LWPOLYLINE_00000158019136687172269300000011334657073540529815_">
		<rect
   x="514.09998"
   y="402"
   class="st0"
   width="8.5"
   height="85"
   id="rect1674" />
	</g>
	<g
   id="CIRCLE_00000081638191797558842280000008599195042390601101_">
		<circle
   class="st0"
   cx="276"
   cy="516.79999"
   r="4.3000002"
   id="circle1677" />
	</g>
	<g
   id="CIRCLE_00000072251460944363278930000002023954083724790420_">
		<circle
   class="st0"
   cx="276"
   cy="32.099998"
   r="4.3000002"
   id="circle1680" />
	</g>
	<g
   id="CIRCLE_00000007407637404360166100000011846680193060209542_">
		<circle
   class="st0"
   cx="518.40002"
   cy="274.5"
   r="4.3000002"
   id="circle1683" />
	</g>
	<g
   id="LINE_00000163061471706513971050000014482396986484018309_">
		<line
   class="st0"
   x1="531.09998"
   y1="529.59998"
   x2="531.09998"
   y2="19.4"
   id="line1686" />
	</g>
	<g
   id="CIRCLE_00000039855905893213358100000007925679342783446412_">
		<circle
   class="st0"
   cx="33.700001"
   cy="274.5"
   r="4.3000002"
   id="circle1689" />
	</g>
</g>
<g
   id="g1715"
   transform="matrix(1.3315805,0,0,1.3284064,-1.8109633,1241.13)">
	<g
   id="LWPOLYLINE_00000102535371476131023260000011302139984748858302_">
		<polygon
   class="st0"
   points="790.5,164.3 794.1,164.3 794.1,172.8 670.8,172.8 670.8,181.3 585.7,181.3 585.7,172.8 543.2,172.8 543.2,19.8 585.7,19.8 585.7,11.3 670.8,11.3 670.8,19.8 794.1,19.8 794.1,28.3 790.5,28.3 790.5,35.4 794.1,35.4 794.1,39.6 802.6,39.6 802.6,35.4 806.1,35.4 806.1,28.3 802.6,28.3 802.6,19.8 925.9,19.8 925.9,11.3 1010.9,11.3 1010.9,19.8 1053.4,19.8 1053.4,172.8 1010.9,172.8 1010.9,181.3 925.9,181.3 925.9,172.8 802.6,172.8 802.6,164.3 806.1,164.3 806.1,157.3 802.6,157.3 802.6,153 794.1,153 794.1,157.3 790.5,157.3 "
   id="polygon1694" />
	</g>
	<g
   id="LWPOLYLINE_00000122001651834187303540000001512184909715961245_">
		<rect
   x="755.79999"
   y="96.300003"
   class="st0"
   width="85"
   height="8.5"
   id="rect1697" />
	</g>
	<g
   id="LWPOLYLINE_00000125560694945582670380000013474853248862925462_">
		<rect
   x="941.79999"
   y="114.7"
   class="st0"
   width="53.299999"
   height="36.900002"
   id="rect1700" />
	</g>
	<g
   id="CIRCLE_00000177455048405830034290000010369131181585885605_">
		<circle
   class="st0"
   cx="628.20001"
   cy="133.2"
   r="11.3"
   id="circle1703" />
	</g>
	<g
   id="LWPOLYLINE_00000145755878655803532790000011849430455832363705_">
		<rect
   x="551.70001"
   y="39.599998"
   class="st0"
   width="8.5"
   height="113.4"
   id="rect1706" />
	</g>
	<g
   id="LINE_00000036956858627320401130000009513353330854749352_">
		<line
   class="st0"
   x1="670.79999"
   y1="181.3"
   x2="585.70001"
   y2="181.3"
   id="line1709" />
	</g>
	<g
   id="LWPOLYLINE_00000095326944621799153670000006609291726147378606_">
		<rect
   x="1036.4"
   y="39.599998"
   class="st0"
   width="8.5"
   height="113.4"
   id="rect1712" />
	</g>
</g>
<g
   id="g1804"
   transform="matrix(1.3314093,0,0,1.3312271,-1.7174881,-227.79106)">
	<g
   id="CIRCLE_00000044178186625683238120000010590579303297651338_">
		<circle
   class="st0"
   cx="680"
   cy="326.60001"
   r="4.3000002"
   id="circle1717" />
	</g>
	<g
   id="CIRCLE_00000054948624972333938340000017398207352878974137_">
		<circle
   class="st0"
   cx="882.70001"
   cy="326.60001"
   r="4.3000002"
   id="circle1720" />
	</g>
	<g
   id="CIRCLE_00000143611971470104478210000003774580573836673213_">
		<circle
   class="st0"
   cx="882.70001"
   cy="529.29999"
   r="4.3000002"
   id="circle1723" />
	</g>
	<g
   id="CIRCLE_00000114036037642831314400000008356518448952740533_">
		<circle
   class="st0"
   cx="680"
   cy="529.29999"
   r="4.3000002"
   id="circle1726" />
	</g>
	<g
   id="CIRCLE_00000054254667204227209220000004356897672728449194_">
		<circle
   class="st0"
   cx="781.29999"
   cy="428"
   r="113.4"
   id="circle1729" />
	</g>
	<g
   id="LINE_00000108277014051855256330000001667165154040782251_">
		<line
   class="st0"
   x1="823.79999"
   y1="189.89999"
   x2="823.79999"
   y2="181.3"
   id="line1732" />
	</g>
	<g
   id="LINE_00000098928198092337074000000001732647619697456292_">
		<line
   class="st0"
   x1="823.79999"
   y1="181.3"
   x2="738.79999"
   y2="181.3"
   id="line1735" />
	</g>
	<g
   id="LINE_00000060721605352430433370000008780456125491218602_">
		<line
   class="st0"
   x1="738.79999"
   y1="181.3"
   x2="738.79999"
   y2="189.89999"
   id="line1738" />
	</g>
	<g
   id="LINE_00000181050898716049950980000011989408836329159335_">
		<line
   class="st0"
   x1="823.79999"
   y1="666.09998"
   x2="823.79999"
   y2="674.59998"
   id="line1741" />
	</g>
	<g
   id="LINE_00000144328781460358880080000008545634680093042317_">
		<line
   class="st0"
   x1="823.79999"
   y1="674.59998"
   x2="738.79999"
   y2="674.59998"
   id="line1744" />
	</g>
	<g
   id="LINE_00000036941956352159393900000001516628426713824191_">
		<line
   class="st0"
   x1="738.79999"
   y1="674.59998"
   x2="738.79999"
   y2="666.09998"
   id="line1747" />
	</g>
	<g
   id="LINE_00000059275199519318054660000008810881072139953040_">
		<line
   class="st0"
   x1="543.20001"
   y1="189.89999"
   x2="738.79999"
   y2="189.89999"
   id="line1750" />
	</g>
	<g
   id="LINE_00000150079381288988015930000013802456472398647685_">
		<line
   class="st0"
   x1="823.79999"
   y1="189.89999"
   x2="1019.4"
   y2="189.89999"
   id="line1753" />
	</g>
	<g
   id="LINE_00000150825341576399181670000012042901860918934446_">
		<line
   class="st0"
   x1="543.20001"
   y1="666.09998"
   x2="543.20001"
   y2="189.89999"
   id="line1756" />
	</g>
	<g
   id="LINE_00000084530150799802166810000012660564673997503675_">
		<line
   class="st0"
   x1="1019.4"
   y1="189.89999"
   x2="1019.4"
   y2="286.20001"
   id="line1759" />
	</g>
	<g
   id="LINE_00000080920648504827578540000016838901401566751379_">
		<line
   class="st0"
   x1="1019.4"
   y1="569.70001"
   x2="1019.4"
   y2="666.09998"
   id="line1762" />
	</g>
	<g
   id="LINE_00000178162492754071177880000008746504795188724128_">
		<line
   class="st0"
   x1="1019.4"
   y1="286.20001"
   x2="962.70001"
   y2="286.20001"
   id="line1765" />
	</g>
	<g
   id="LINE_00000088105732032240867720000001738550226905703321_">
		<line
   class="st0"
   x1="962.70001"
   y1="286.20001"
   x2="962.70001"
   y2="569.70001"
   id="line1768" />
	</g>
	<g
   id="LINE_00000070114506175688282430000015596999950321011886_">
		<line
   class="st0"
   x1="962.70001"
   y1="569.70001"
   x2="1019.4"
   y2="569.70001"
   id="line1771" />
	</g>
	<g
   id="LINE_00000166668330598820021650000009911780555913100677_">
		<line
   class="st0"
   x1="656.59998"
   y1="666.09998"
   x2="656.59998"
   y2="609.40002"
   id="line1774" />
	</g>
	<g
   id="LINE_00000016771656326553779940000017148812528600671670_">
		<line
   class="st0"
   x1="656.59998"
   y1="609.40002"
   x2="599.90002"
   y2="609.40002"
   id="line1777" />
	</g>
	<g
   id="LINE_00000094612189785381418100000004080690744263275159_">
		<line
   class="st0"
   x1="599.90002"
   y1="609.40002"
   x2="599.90002"
   y2="666.09998"
   id="line1780" />
	</g>
	<g
   id="LINE_00000038396963951880486030000009352770812260397722_">
		<line
   class="st0"
   x1="962.70001"
   y1="666.09998"
   x2="962.70001"
   y2="609.40002"
   id="line1783" />
	</g>
	<g
   id="LINE_00000034076399596066386530000001263454180053481869_">
		<line
   class="st0"
   x1="962.70001"
   y1="609.40002"
   x2="906"
   y2="609.40002"
   id="line1786" />
	</g>
	<g
   id="LINE_00000029746894116130887160000017420236175528415878_">
		<line
   class="st0"
   x1="906"
   y1="609.40002"
   x2="906"
   y2="666.09998"
   id="line1789" />
	</g>
	<g
   id="LINE_00000116942737490278582410000011173670603499447969_">
		<line
   class="st0"
   x1="1019.4"
   y1="666.09998"
   x2="962.70001"
   y2="666.09998"
   id="line1792" />
	</g>
	<g
   id="LINE_00000057126775737637203300000005730290075825534369_">
		<line
   class="st0"
   x1="906"
   y1="666.09998"
   x2="823.79999"
   y2="666.09998"
   id="line1795" />
	</g>
	<g
   id="LINE_00000115487660209237668360000015440773543002564257_">
		<line
   class="st0"
   x1="738.79999"
   y1="666.09998"
   x2="656.59998"
   y2="666.09998"
   id="line1798" />
	</g>
	<g
   id="LINE_00000051354988865478329250000010124918568333050526_">
		<line
   class="st0"
   x1="599.90002"
   y1="666.09998"
   x2="543.20001"
   y2="666.09998"
   id="line1801" />
	</g>
</g>
<g
   id="g1848"
   transform="matrix(1.3315783,0,0,1.3315783,-6.8124918,-6.3440144)">
	<g
   id="LWPOLYLINE_00000060740041869024367520000002953313088775413127_">
		<rect
   x="20.9"
   y="541.29999"
   class="st0"
   width="510.20001"
   height="510.20001"
   id="rect1806" />
	</g>
	<g
   id="CIRCLE_00000014625884377945592800000015114517945469893051_">
		<circle
   class="st0"
   cx="276"
   cy="796.5"
   r="170.10001"
   id="circle1809" />
	</g>
	<g
   id="LWPOLYLINE_00000020390042472515989620000001038182002788170165_">
		<rect
   x="63.400002"
   y="549.90002"
   class="st0"
   width="85"
   height="8.5"
   id="rect1812" />
	</g>
	<g
   id="LWPOLYLINE_00000030446043387685106050000010783834129377832847_">
		<rect
   x="403.60001"
   y="549.90002"
   class="st0"
   width="85"
   height="8.5"
   id="rect1815" />
	</g>
	<g
   id="LWPOLYLINE_00000168101687907072906130000016740364275060128907_">
		<rect
   x="29.4"
   y="583.90002"
   class="st0"
   width="8.5"
   height="85"
   id="rect1818" />
	</g>
	<g
   id="LWPOLYLINE_00000100354953186349744590000013528073936045589381_">
		<rect
   x="63.400002"
   y="1034.6"
   class="st0"
   width="85"
   height="8.5"
   id="rect1821" />
	</g>
	<g
   id="LWPOLYLINE_00000008137426536477140820000005794975999294092680_">
		<rect
   x="403.60001"
   y="1034.6"
   class="st0"
   width="85"
   height="8.5"
   id="rect1824" />
	</g>
	<g
   id="LWPOLYLINE_00000181059504141235912620000005599111065637046450_">
		<rect
   x="29.4"
   y="924"
   class="st0"
   width="8.5"
   height="85"
   id="rect1827" />
	</g>
	<g
   id="LWPOLYLINE_00000100364324453288502260000009354851409879833008_">
		<rect
   x="514.09998"
   y="583.90002"
   class="st0"
   width="8.5"
   height="85"
   id="rect1830" />
	</g>
	<g
   id="LWPOLYLINE_00000054243526119051166180000000297917934732033195_">
		<rect
   x="514.09998"
   y="924"
   class="st0"
   width="8.5"
   height="85"
   id="rect1833" />
	</g>
	<g
   id="CIRCLE_00000125583138059786805900000013633327367851059084_">
		<circle
   class="st0"
   cx="276"
   cy="1038.8"
   r="4.3000002"
   id="circle1836" />
	</g>
	<g
   id="CIRCLE_00000096040127369798947510000008081999313842305920_">
		<circle
   class="st0"
   cx="276"
   cy="554.09998"
   r="4.3000002"
   id="circle1839" />
	</g>
	<g
   id="CIRCLE_00000172424547536301154330000014627634563629239440_">
		<circle
   class="st0"
   cx="518.40002"
   cy="796.5"
   r="4.3000002"
   id="circle1842" />
	</g>
	<g
   id="CIRCLE_00000150079675946643764240000008530735120211541647_">
		<circle
   class="st0"
   cx="33.700001"
   cy="796.5"
   r="4.3000002"
   id="circle1845" />
	</g>
</g>
<g
   id="g1868"
   transform="matrix(1.331581,0,0,1.3276271,-6.9762244,-205.40596)">
	<g
   id="LWPOLYLINE_00000110455259798257977000000007051969728918299323_">
		<polygon
   class="st0"
   points="794.1,820.6 790.5,820.6 790.5,827.6 794.1,827.6 794.1,836.2 670.8,836.2 670.8,844.7 585.7,844.7 585.7,836.2 543.2,836.2 543.2,683.1 585.7,683.1 585.7,674.6 670.8,674.6 670.8,683.1 794.1,683.1 794.1,691.6 790.5,691.6 790.5,698.7 794.1,698.7 794.1,702.9 802.6,702.9 802.6,698.7 806.1,698.7 806.1,691.6 802.6,691.6 802.6,683.1 925.9,683.1 925.9,674.6 1010.9,674.6 1010.9,683.1 1053.4,683.1 1053.4,836.2 1010.9,836.2 1010.9,844.7 925.9,844.7 925.9,836.2 802.6,836.2 802.6,827.6 806.1,827.6 806.1,820.6 802.6,820.6 802.6,816.3 794.1,816.3 "
   id="polygon1850" />
	</g>
	<g
   id="CIRCLE_00000085952670948020034090000001510702203527363989_">
		<circle
   class="st0"
   cx="645.29999"
   cy="759.59998"
   r="14.2"
   id="circle1853" />
	</g>
	<g
   id="LWPOLYLINE_00000163053770056650738010000003245186173483387291_">
		<rect
   x="755.79999"
   y="759.59998"
   class="st0"
   width="85"
   height="8.5"
   id="rect1856" />
	</g>
	<g
   id="LWPOLYLINE_00000031905593036599450770000018261637504186120080_">
		<rect
   x="551.70001"
   y="702.90002"
   class="st0"
   width="8.5"
   height="113.4"
   id="rect1859" />
	</g>
	<g
   id="LWPOLYLINE_00000105386482873989797640000002147738278354006402_">
		<rect
   x="1036.4"
   y="702.90002"
   class="st0"
   width="8.5"
   height="113.4"
   id="rect1862" />
	</g>
	<g
   id="CIRCLE_00000160190612349268479140000007564678599855208599_">
		<circle
   class="st0"
   cx="951.40002"
   cy="759.59998"
   r="8.5"
   id="circle1865" />
	</g>
</g>
<g
   id="g2032"
   transform="matrix(1.3314994,0,0,1.327635,-7.1672088,-177.59922)">
	<g
   id="LINE">
		<line
   class="st0"
   x1="1036.4"
   y1="886"
   x2="1044.9"
   y2="886"
   id="line1870" />
	</g>
	<g
   id="LINE_00000075149590828720063250000010009557552742953104_">
		<line
   class="st0"
   x1="1044.9"
   y1="886"
   x2="1044.9"
   y2="999.40002"
   id="line1873" />
	</g>
	<g
   id="LINE_00000000207174082460417850000001433577289428052135_">
		<line
   class="st0"
   x1="1044.9"
   y1="999.40002"
   x2="1036.4"
   y2="999.40002"
   id="line1876" />
	</g>
	<g
   id="LINE_00000146483828319695382270000012622370610243741841_">
		<line
   class="st0"
   x1="1036.4"
   y1="1019.3"
   x2="1036.4"
   y2="999.40002"
   id="line1879" />
	</g>
	<g
   id="LINE_00000052815508834232237710000000564468520488282030_">
		<line
   class="st0"
   x1="1036.4"
   y1="886"
   x2="1036.4"
   y2="866.20001"
   id="line1882" />
	</g>
	<g
   id="LINE_00000123415551772763318270000003329144298025685161_">
		<line
   class="st0"
   x1="551.70001"
   y1="999.40002"
   x2="560.20001"
   y2="999.40002"
   id="line1885" />
	</g>
	<g
   id="LINE_00000126288571014508967660000016917506572202902448_">
		<line
   class="st0"
   x1="560.20001"
   y1="886"
   x2="551.70001"
   y2="886"
   id="line1888" />
	</g>
	<g
   id="LINE_00000127038768092693997760000008449453824121947274_">
		<line
   class="st0"
   x1="551.70001"
   y1="886"
   x2="551.70001"
   y2="999.40002"
   id="line1891" />
	</g>
	<g
   id="LINE_00000024705982298169737480000002840216274805007001_">
		<line
   class="st0"
   x1="560.20001"
   y1="866.20001"
   x2="560.20001"
   y2="886"
   id="line1894" />
	</g>
	<g
   id="LINE_00000079464088292206495090000014044682737605926813_">
		<line
   class="st0"
   x1="560.20001"
   y1="999.40002"
   x2="560.20001"
   y2="1019.3"
   id="line1897" />
	</g>
	<g
   id="LINE_00000067921596667888210280000001686806742193961658_">
		<line
   class="st0"
   x1="925.90002"
   y1="866.20001"
   x2="925.90002"
   y2="857.70001"
   id="line1900" />
	</g>
	<g
   id="LINE_00000046310498467769542460000011029066672298436502_">
		<line
   class="st0"
   x1="925.90002"
   y1="857.70001"
   x2="1010.9"
   y2="857.70001"
   id="line1903" />
	</g>
	<g
   id="LINE_00000110473015144108603990000005751731055987793824_">
		<line
   class="st0"
   x1="1010.9"
   y1="857.70001"
   x2="1010.9"
   y2="866.20001"
   id="line1906" />
	</g>
	<g
   id="LINE_00000035524413930928031330000015765419675546009784_">
		<line
   class="st0"
   x1="1036.4"
   y1="866.20001"
   x2="1010.9"
   y2="866.20001"
   id="line1909" />
	</g>
	<g
   id="LINE_00000108279097982086493840000002677407824466411450_">
		<line
   class="st0"
   x1="670.79999"
   y1="866.20001"
   x2="670.79999"
   y2="857.70001"
   id="line1912" />
	</g>
	<g
   id="LINE_00000018201575593341387080000017715991677882689683_">
		<line
   class="st0"
   x1="585.70001"
   y1="857.70001"
   x2="585.70001"
   y2="866.20001"
   id="line1915" />
	</g>
	<g
   id="LINE_00000063630021649647554630000005613447495398917016_">
		<line
   class="st0"
   x1="670.79999"
   y1="857.70001"
   x2="585.70001"
   y2="857.70001"
   id="line1918" />
	</g>
	<g
   id="LINE_00000074419333328686522280000011849794786757534377_">
		<line
   class="st0"
   x1="585.70001"
   y1="866.20001"
   x2="560.20001"
   y2="866.20001"
   id="line1921" />
	</g>
	<g
   id="LINE_00000049933928624082427090000011826193293999658386_">
		<line
   class="st0"
   x1="925.90002"
   y1="1019.3"
   x2="925.90002"
   y2="1027.8"
   id="line1924" />
	</g>
	<g
   id="LINE_00000021076851158558309940000002926668723572707767_">
		<line
   class="st0"
   x1="925.90002"
   y1="1027.8"
   x2="1010.9"
   y2="1027.8"
   id="line1927" />
	</g>
	<g
   id="LINE_00000038395719003297865470000002725768386610990015_">
		<line
   class="st0"
   x1="1010.9"
   y1="1027.8"
   x2="1010.9"
   y2="1019.3"
   id="line1930" />
	</g>
	<g
   id="LINE_00000062174356457664896450000002988486704260930717_">
		<line
   class="st0"
   x1="670.79999"
   y1="1019.3"
   x2="670.79999"
   y2="1027.8"
   id="line1933" />
	</g>
	<g
   id="LINE_00000119828081731960699870000012847825298898402469_">
		<line
   class="st0"
   x1="585.70001"
   y1="1027.8"
   x2="585.70001"
   y2="1019.3"
   id="line1936" />
	</g>
	<g
   id="LINE_00000172410954179332067350000013239657261369263790_">
		<line
   class="st0"
   x1="670.79999"
   y1="1027.8"
   x2="585.70001"
   y2="1027.8"
   id="line1939" />
	</g>
	<g
   id="LINE_00000098938418495257665520000005031055668074536333_">
		<line
   class="st0"
   x1="1010.9"
   y1="1019.3"
   x2="1036.4"
   y2="1019.3"
   id="line1942" />
	</g>
	<g
   id="LINE_00000054967016792507784850000004588910371484009402_">
		<line
   class="st0"
   x1="560.20001"
   y1="1019.3"
   x2="585.70001"
   y2="1019.3"
   id="line1945" />
	</g>
	<g
   id="LINE_00000176744927231238779370000017198080013237983657_">
		<line
   class="st0"
   x1="802.59998"
   y1="1019.3"
   x2="802.59998"
   y2="1010.8"
   id="line1948" />
	</g>
	<g
   id="LINE_00000032646007941090200950000014013826648800510353_">
		<line
   class="st0"
   x1="802.59998"
   y1="1010.8"
   x2="806.09998"
   y2="1010.8"
   id="line1951" />
	</g>
	<g
   id="LINE_00000094588123228522676920000002276375233036270261_">
		<line
   class="st0"
   x1="806.09998"
   y1="1010.8"
   x2="806.09998"
   y2="1003.7"
   id="line1954" />
	</g>
	<g
   id="LINE_00000036956061118916238780000015365562578272988596_">
		<line
   class="st0"
   x1="806.09998"
   y1="1003.7"
   x2="802.59998"
   y2="1003.7"
   id="line1957" />
	</g>
	<g
   id="LINE_00000106843314753028767470000006887900951573416115_">
		<line
   class="st0"
   x1="802.59998"
   y1="1003.7"
   x2="802.59998"
   y2="999.40002"
   id="line1960" />
	</g>
	<g
   id="LINE_00000078764457448432455590000003662410919056170923_">
		<line
   class="st0"
   x1="802.59998"
   y1="999.40002"
   x2="798.29999"
   y2="999.40002"
   id="line1963" />
	</g>
	<g
   id="LINE_00000060747024881957466330000003451461196008565401_">
		<line
   class="st0"
   x1="790.5"
   y1="1010.8"
   x2="790.5"
   y2="1003.7"
   id="line1966" />
	</g>
	<g
   id="LINE_00000124873741497813386890000012291056041051226021_">
		<line
   class="st0"
   x1="794.09998"
   y1="1010.8"
   x2="790.5"
   y2="1010.8"
   id="line1969" />
	</g>
	<g
   id="LINE_00000160913033838034855960000007957581926111685284_">
		<line
   class="st0"
   x1="790.5"
   y1="1003.7"
   x2="794.09998"
   y2="1003.7"
   id="line1972" />
	</g>
	<g
   id="LINE_00000064319073831762807240000005907914905504980637_">
		<line
   class="st0"
   x1="794.09998"
   y1="1003.7"
   x2="794.09998"
   y2="999.40002"
   id="line1975" />
	</g>
	<g
   id="LINE_00000008869493890628475730000009035872218911429040_">
		<line
   class="st0"
   x1="794.09998"
   y1="1019.3"
   x2="794.09998"
   y2="1010.8"
   id="line1978" />
	</g>
	<g
   id="LINE_00000139995811396427476910000005682002302413834938_">
		<line
   class="st0"
   x1="794.09998"
   y1="999.40002"
   x2="798.29999"
   y2="999.40002"
   id="line1981" />
	</g>
	<g
   id="LINE_00000168108039395100371760000005819884539877426095_">
		<line
   class="st0"
   x1="806.09998"
   y1="881.79999"
   x2="802.59998"
   y2="881.79999"
   id="line1984" />
	</g>
	<g
   id="LINE_00000068634981361411800210000017722863662518875806_">
		<line
   class="st0"
   x1="794.09998"
   y1="866.20001"
   x2="794.09998"
   y2="874.70001"
   id="line1987" />
	</g>
	<g
   id="LINE_00000121246360323261081690000004628595520027741843_">
		<line
   class="st0"
   x1="802.59998"
   y1="881.79999"
   x2="802.59998"
   y2="886"
   id="line1990" />
	</g>
	<g
   id="LINE_00000096019413610724024260000015865368942487654566_">
		<line
   class="st0"
   x1="794.09998"
   y1="881.79999"
   x2="794.09998"
   y2="886"
   id="line1993" />
	</g>
	<g
   id="LINE_00000036953998715975795640000010038584062791433107_">
		<line
   class="st0"
   x1="794.09998"
   y1="874.70001"
   x2="790.5"
   y2="874.70001"
   id="line1996" />
	</g>
	<g
   id="LINE_00000062152960180249152900000012151259973358405298_">
		<line
   class="st0"
   x1="806.09998"
   y1="874.70001"
   x2="806.09998"
   y2="881.79999"
   id="line1999" />
	</g>
	<g
   id="LINE_00000105389727211930515410000011934003850822140340_">
		<line
   class="st0"
   x1="790.5"
   y1="874.70001"
   x2="790.5"
   y2="881.79999"
   id="line2002" />
	</g>
	<g
   id="LINE_00000045607396852982659120000007061740705303621791_">
		<line
   class="st0"
   x1="802.59998"
   y1="874.70001"
   x2="806.09998"
   y2="874.70001"
   id="line2005" />
	</g>
	<g
   id="LINE_00000074401293725741430730000011527988791083474829_">
		<line
   class="st0"
   x1="790.5"
   y1="881.79999"
   x2="794.09998"
   y2="881.79999"
   id="line2008" />
	</g>
	<g
   id="LINE_00000150797483359509371730000009921703765562136216_">
		<line
   class="st0"
   x1="802.59998"
   y1="886"
   x2="798.29999"
   y2="886"
   id="line2011" />
	</g>
	<g
   id="LINE_00000173131877468421848540000005736149017451462802_">
		<line
   class="st0"
   x1="794.09998"
   y1="886"
   x2="798.29999"
   y2="886"
   id="line2014" />
	</g>
	<g
   id="LINE_00000134243395017692152600000000522095433967704511_">
		<line
   class="st0"
   x1="802.59998"
   y1="866.20001"
   x2="802.59998"
   y2="874.70001"
   id="line2017" />
	</g>
	<g
   id="LINE_00000127722780383581206000000014572352937466832815_">
		<line
   class="st0"
   x1="925.90002"
   y1="866.20001"
   x2="802.59998"
   y2="866.20001"
   id="line2020" />
	</g>
	<g
   id="LINE_00000070834537995435606840000006384182215466628752_">
		<line
   class="st0"
   x1="794.09998"
   y1="866.20001"
   x2="670.79999"
   y2="866.20001"
   id="line2023" />
	</g>
	<g
   id="LINE_00000050634034393434273170000002765637431634604956_">
		<line
   class="st0"
   x1="670.79999"
   y1="1019.3"
   x2="794.09998"
   y2="1019.3"
   id="line2026" />
	</g>
	<g
   id="LINE_00000042736986697442681530000010607465470664070331_">
		<line
   class="st0"
   x1="802.59998"
   y1="1019.3"
   x2="925.90002"
   y2="1019.3"
   id="line2029" />
	</g>
</g>
<g
   id="g2196"
   transform="matrix(1.3314993,0,0,1.3276274,-703.72309,76.922334)">
	<g
   id="LINE_00000047022844492562947590000013631845827343354789_">
		<line
   class="st0"
   x1="1034.3"
   y1="1062.9"
   x2="1042.8"
   y2="1062.9"
   id="line2034" />
	</g>
	<g
   id="LINE_00000151532945374138470980000014194748382926540955_">
		<line
   class="st0"
   x1="1042.8"
   y1="1062.9"
   x2="1042.8"
   y2="1176.3"
   id="line2037" />
	</g>
	<g
   id="LINE_00000096760765023996298940000008204032309569452199_">
		<line
   class="st0"
   x1="1042.8"
   y1="1176.3"
   x2="1034.3"
   y2="1176.3"
   id="line2040" />
	</g>
	<g
   id="LINE_00000030482373389657565590000007971603815753354880_">
		<line
   class="st0"
   x1="1034.3"
   y1="1196.2"
   x2="1034.3"
   y2="1176.3"
   id="line2043" />
	</g>
	<g
   id="LINE_00000015343614120246375970000002822381958130473603_">
		<line
   class="st0"
   x1="1034.3"
   y1="1062.9"
   x2="1034.3"
   y2="1043.1"
   id="line2046" />
	</g>
	<g
   id="LINE_00000170247532169771966520000015437207975071710138_">
		<line
   class="st0"
   x1="549.59998"
   y1="1176.3"
   x2="558.09998"
   y2="1176.3"
   id="line2049" />
	</g>
	<g
   id="LINE_00000047028305809549724730000008315477700154797726_">
		<line
   class="st0"
   x1="558.09998"
   y1="1062.9"
   x2="549.59998"
   y2="1062.9"
   id="line2052" />
	</g>
	<g
   id="LINE_00000109000953672631288160000006612639732678872216_">
		<line
   class="st0"
   x1="549.59998"
   y1="1062.9"
   x2="549.59998"
   y2="1176.3"
   id="line2055" />
	</g>
	<g
   id="LINE_00000000219191504883113640000008469952028899028385_">
		<line
   class="st0"
   x1="558.09998"
   y1="1043.1"
   x2="558.09998"
   y2="1062.9"
   id="line2058" />
	</g>
	<g
   id="LINE_00000011753491618966843100000015306032104542654346_">
		<line
   class="st0"
   x1="558.09998"
   y1="1176.3"
   x2="558.09998"
   y2="1196.2"
   id="line2061" />
	</g>
	<g
   id="LINE_00000035488722476091856850000003506985412653860224_">
		<line
   class="st0"
   x1="923.79999"
   y1="1043.1"
   x2="923.79999"
   y2="1034.6"
   id="line2064" />
	</g>
	<g
   id="LINE_00000164494293087122974650000009633474353276149410_">
		<line
   class="st0"
   x1="923.79999"
   y1="1034.6"
   x2="1008.8"
   y2="1034.6"
   id="line2067" />
	</g>
	<g
   id="LINE_00000169521102959351928860000017688302568855414951_">
		<line
   class="st0"
   x1="1008.8"
   y1="1034.6"
   x2="1008.8"
   y2="1043.1"
   id="line2070" />
	</g>
	<g
   id="LINE_00000005237548134945819850000011554979912208641718_">
		<line
   class="st0"
   x1="1034.3"
   y1="1043.1"
   x2="1008.8"
   y2="1043.1"
   id="line2073" />
	</g>
	<g
   id="LINE_00000177447296336331938690000015261060051586422942_">
		<line
   class="st0"
   x1="668.59998"
   y1="1043.1"
   x2="668.59998"
   y2="1034.6"
   id="line2076" />
	</g>
	<g
   id="LINE_00000005988728184381526840000007690807387207215288_">
		<line
   class="st0"
   x1="583.59998"
   y1="1034.6"
   x2="583.59998"
   y2="1043.1"
   id="line2079" />
	</g>
	<g
   id="LINE_00000147181882674715752200000018215885097771306408_">
		<line
   class="st0"
   x1="668.59998"
   y1="1034.6"
   x2="583.59998"
   y2="1034.6"
   id="line2082" />
	</g>
	<g
   id="LINE_00000041999586513755679900000003732930451391801233_">
		<line
   class="st0"
   x1="583.59998"
   y1="1043.1"
   x2="558.09998"
   y2="1043.1"
   id="line2085" />
	</g>
	<g
   id="LINE_00000142134664047478186910000006810987853238136482_">
		<line
   class="st0"
   x1="923.79999"
   y1="1196.2"
   x2="923.79999"
   y2="1204.7"
   id="line2088" />
	</g>
	<g
   id="LINE_00000129915193628995922760000000586315043837233281_">
		<line
   class="st0"
   x1="923.79999"
   y1="1204.7"
   x2="1008.8"
   y2="1204.7"
   id="line2091" />
	</g>
	<g
   id="LINE_00000100384150450264069280000012721949643964779169_">
		<line
   class="st0"
   x1="1008.8"
   y1="1204.7"
   x2="1008.8"
   y2="1196.2"
   id="line2094" />
	</g>
	<g
   id="LINE_00000020385065409968106990000006752051440447288499_">
		<line
   class="st0"
   x1="668.59998"
   y1="1196.2"
   x2="668.59998"
   y2="1204.7"
   id="line2097" />
	</g>
	<g
   id="LINE_00000173843866842037707470000005647147802944845481_">
		<line
   class="st0"
   x1="583.59998"
   y1="1204.7"
   x2="583.59998"
   y2="1196.2"
   id="line2100" />
	</g>
	<g
   id="LINE_00000138560339449794262330000005373041260481901481_">
		<line
   class="st0"
   x1="668.59998"
   y1="1204.7"
   x2="583.59998"
   y2="1204.7"
   id="line2103" />
	</g>
	<g
   id="LINE_00000174595271855953587290000017094913815241482368_">
		<line
   class="st0"
   x1="1008.8"
   y1="1196.2"
   x2="1034.3"
   y2="1196.2"
   id="line2106" />
	</g>
	<g
   id="LINE_00000048498183825996747500000004874203467495542719_">
		<line
   class="st0"
   x1="558.09998"
   y1="1196.2"
   x2="583.59998"
   y2="1196.2"
   id="line2109" />
	</g>
	<g
   id="LINE_00000063634355256055404640000006125838268973961389_">
		<line
   class="st0"
   x1="800.5"
   y1="1196.2"
   x2="800.5"
   y2="1187.6"
   id="line2112" />
	</g>
	<g
   id="LINE_00000178170578275703881270000018418494910944789636_">
		<line
   class="st0"
   x1="800.5"
   y1="1187.6"
   x2="804"
   y2="1187.6"
   id="line2115" />
	</g>
	<g
   id="LINE_00000107590922782563333070000011551818136411436182_">
		<line
   class="st0"
   x1="804"
   y1="1187.6"
   x2="804"
   y2="1180.6"
   id="line2118" />
	</g>
	<g
   id="LINE_00000013186403980107607390000008617506251070372263_">
		<line
   class="st0"
   x1="804"
   y1="1180.6"
   x2="800.5"
   y2="1180.6"
   id="line2121" />
	</g>
	<g
   id="LINE_00000090989621802344398400000012189856695969995661_">
		<line
   class="st0"
   x1="800.5"
   y1="1180.6"
   x2="800.5"
   y2="1176.3"
   id="line2124" />
	</g>
	<g
   id="LINE_00000047050762873486042760000013621592269940506043_">
		<line
   class="st0"
   x1="800.5"
   y1="1176.3"
   x2="796.20001"
   y2="1176.3"
   id="line2127" />
	</g>
	<g
   id="LINE_00000034081182401110445170000015690902214275474352_">
		<line
   class="st0"
   x1="788.40002"
   y1="1187.6"
   x2="788.40002"
   y2="1180.6"
   id="line2130" />
	</g>
	<g
   id="LINE_00000104664312039461372650000012691322645396501385_">
		<line
   class="st0"
   x1="791.90002"
   y1="1187.6"
   x2="788.40002"
   y2="1187.6"
   id="line2133" />
	</g>
	<g
   id="LINE_00000088105586403693945150000011269402429541725867_">
		<line
   class="st0"
   x1="788.40002"
   y1="1180.6"
   x2="791.90002"
   y2="1180.6"
   id="line2136" />
	</g>
	<g
   id="LINE_00000092428746245304784180000007433204278748980407_">
		<line
   class="st0"
   x1="791.90002"
   y1="1180.6"
   x2="791.90002"
   y2="1176.3"
   id="line2139" />
	</g>
	<g
   id="LINE_00000139982443227116600840000012979247274039102635_">
		<line
   class="st0"
   x1="791.90002"
   y1="1196.2"
   x2="791.90002"
   y2="1187.6"
   id="line2142" />
	</g>
	<g
   id="LINE_00000062171070384815225680000007245942032793313715_">
		<line
   class="st0"
   x1="791.90002"
   y1="1176.3"
   x2="796.20001"
   y2="1176.3"
   id="line2145" />
	</g>
	<g
   id="LINE_00000081605855573737319560000004843516113848968889_">
		<line
   class="st0"
   x1="804"
   y1="1058.7"
   x2="800.5"
   y2="1058.7"
   id="line2148" />
	</g>
	<g
   id="LINE_00000178176967535124160310000005735842652409744809_">
		<line
   class="st0"
   x1="791.90002"
   y1="1043.1"
   x2="791.90002"
   y2="1051.6"
   id="line2151" />
	</g>
	<g
   id="LINE_00000146501136400050106370000000727367841039201922_">
		<line
   class="st0"
   x1="800.5"
   y1="1058.7"
   x2="800.5"
   y2="1062.9"
   id="line2154" />
	</g>
	<g
   id="LINE_00000008108495995370575340000017895030727989429928_">
		<line
   class="st0"
   x1="791.90002"
   y1="1058.7"
   x2="791.90002"
   y2="1062.9"
   id="line2157" />
	</g>
	<g
   id="LINE_00000039842652582232039020000001400668811574645649_">
		<line
   class="st0"
   x1="791.90002"
   y1="1051.6"
   x2="788.40002"
   y2="1051.6"
   id="line2160" />
	</g>
	<g
   id="LINE_00000030452703975627244330000001990183019822892722_">
		<line
   class="st0"
   x1="804"
   y1="1051.6"
   x2="804"
   y2="1058.7"
   id="line2163" />
	</g>
	<g
   id="LINE_00000099650009746688987270000015026282788373922697_">
		<line
   class="st0"
   x1="788.40002"
   y1="1051.6"
   x2="788.40002"
   y2="1058.7"
   id="line2166" />
	</g>
	<g
   id="LINE_00000158712252418372134890000014296652921953264551_">
		<line
   class="st0"
   x1="800.5"
   y1="1051.6"
   x2="804"
   y2="1051.6"
   id="line2169" />
	</g>
	<g
   id="LINE_00000054253325556161947990000012931813695228361366_">
		<line
   class="st0"
   x1="788.40002"
   y1="1058.7"
   x2="791.90002"
   y2="1058.7"
   id="line2172" />
	</g>
	<g
   id="LINE_00000177473411059147029190000011600025185121141435_">
		<line
   class="st0"
   x1="800.5"
   y1="1062.9"
   x2="796.20001"
   y2="1062.9"
   id="line2175" />
	</g>
	<g
   id="LINE_00000153680146657281005690000000510300917914155146_">
		<line
   class="st0"
   x1="791.90002"
   y1="1062.9"
   x2="796.20001"
   y2="1062.9"
   id="line2178" />
	</g>
	<g
   id="LINE_00000178924981526231542740000011236283821146018745_">
		<line
   class="st0"
   x1="800.5"
   y1="1043.1"
   x2="800.5"
   y2="1051.6"
   id="line2181" />
	</g>
	<g
   id="LINE_00000069397516695555072710000017961933858427167147_">
		<line
   class="st0"
   x1="923.79999"
   y1="1043.1"
   x2="800.5"
   y2="1043.1"
   id="line2184" />
	</g>
	<g
   id="LINE_00000037665259768835577820000013153072929440826245_">
		<line
   class="st0"
   x1="791.90002"
   y1="1043.1"
   x2="668.59998"
   y2="1043.1"
   id="line2187" />
	</g>
	<g
   id="LINE_00000008136222593596397580000000474124982302042012_">
		<line
   class="st0"
   x1="668.59998"
   y1="1196.2"
   x2="791.90002"
   y2="1196.2"
   id="line2190" />
	</g>
	<g
   id="LINE_00000036956603739408828410000001933293024168403850_">
		<line
   class="st0"
   x1="800.5"
   y1="1196.2"
   x2="923.79999"
   y2="1196.2"
   id="line2193" />
	</g>
</g>
</svg>
