<?xml version="1.0" encoding="UTF-8" standalone="no"?>
<!-- Generator: Adobe Illustrator 27.2.0, SVG Export Plug-In . SVG Version: 6.00 Build 0)  -->

<svg
   version="1.1"
   id="Layer_1"
   x="0px"
   y="0px"
   viewBox="0 0 1511.8109 1700.7872"
   xml:space="preserve"
   sodipodi:docname="Magnetic-Stirrer-v2-Cut-Sheet-4mm.svg"
   width="400mm"
   height="450mm"
   inkscape:version="1.2.2 (b0a8486, 2022-12-01)"
   xmlns:inkscape="http://www.inkscape.org/namespaces/inkscape"
   xmlns:sodipodi="http://sodipodi.sourceforge.net/DTD/sodipodi-0.dtd"
   xmlns="http://www.w3.org/2000/svg"
   xmlns:svg="http://www.w3.org/2000/svg"><defs
   id="defs1274" /><sodipodi:namedview
   id="namedview1272"
   pagecolor="#ffffff"
   bordercolor="#000000"
   borderopacity="0.25"
   inkscape:showpageshadow="2"
   inkscape:pageopacity="0.0"
   inkscape:pagecheckerboard="0"
   inkscape:deskcolor="#d1d1d1"
   showgrid="false"
   showguides="false"
   inkscape:zoom="0.28679038"
   inkscape:cx="221.41607"
   inkscape:cy="829.87441"
   inkscape:window-width="1439"
   inkscape:window-height="742"
   inkscape:window-x="0"
   inkscape:window-y="25"
   inkscape:window-maximized="0"
   inkscape:current-layer="Layer_1"
   inkscape:document-units="mm" />
<style
   type="text/css"
   id="style718">
	.st0{fill:none;stroke:#010101;stroke-width:0.7087;stroke-linecap:round;stroke-linejoin:round;stroke-miterlimit:10;}
</style>
<g
   id="g765"
   transform="matrix(1.3315785,0,0,1.3313175,-2.2367587,-2.5662235)">
	<g
   id="LWPOLYLINE">
		<rect
   x="7.0999999"
   y="8.1000004"
   class="st0"
   width="510.20001"
   height="510.20001"
   id="rect720" />
	</g>
	<g
   id="CIRCLE">
		<circle
   class="st0"
   cx="262.20001"
   cy="263.29999"
   r="113.4"
   id="circle723" />
	</g>
	<g
   id="LWPOLYLINE_00000179623971271040705920000015403596026322935982_">
		<rect
   x="49.599998"
   y="16.6"
   class="st0"
   width="85"
   height="11.3"
   id="rect726" />
	</g>
	<g
   id="LWPOLYLINE_00000150096719703460449890000006688575220804859306_">
		<rect
   x="389.70001"
   y="16.6"
   class="st0"
   width="85"
   height="11.3"
   id="rect729" />
	</g>
	<g
   id="LWPOLYLINE_00000041982111521819723420000015963820426011946673_">
		<rect
   x="15.6"
   y="50.700001"
   class="st0"
   width="11.3"
   height="85"
   id="rect732" />
	</g>
	<g
   id="LWPOLYLINE_00000009587389566314875780000011683783981179863215_">
		<rect
   x="49.599998"
   y="498.5"
   class="st0"
   width="85"
   height="11.3"
   id="rect735" />
	</g>
	<g
   id="LWPOLYLINE_00000041290409577178959630000000413338993225660039_">
		<rect
   x="389.70001"
   y="498.5"
   class="st0"
   width="85"
   height="11.3"
   id="rect738" />
	</g>
	<g
   id="LWPOLYLINE_00000032612944024804637340000016947247405729113779_">
		<rect
   x="15.6"
   y="390.79999"
   class="st0"
   width="11.3"
   height="85"
   id="rect741" />
	</g>
	<g
   id="LWPOLYLINE_00000154398224577627687060000013363349924265401003_">
		<rect
   x="497.5"
   y="50.700001"
   class="st0"
   width="11.3"
   height="85"
   id="rect744" />
	</g>
	<g
   id="LWPOLYLINE_00000104685769984395351470000008092384485767898269_">
		<rect
   x="497.5"
   y="390.79999"
   class="st0"
   width="11.3"
   height="85"
   id="rect747" />
	</g>
	<g
   id="CIRCLE_00000096772080738225940170000015981920378557122712_">
		<circle
   class="st0"
   cx="262.20001"
   cy="505.60001"
   r="4.3000002"
   id="circle750" />
	</g>
	<g
   id="CIRCLE_00000042698813666592525460000007708607777914402736_">
		<circle
   class="st0"
   cx="262.20001"
   cy="20.9"
   r="4.3000002"
   id="circle753" />
	</g>
	<g
   id="CIRCLE_00000011744932849082506360000017292708771260937368_">
		<circle
   class="st0"
   cx="504.60001"
   cy="263.29999"
   r="4.3000002"
   id="circle756" />
	</g>
	<g
   id="LINE_00000133505269062176897150000009651515356359452298_">
		<line
   class="st0"
   x1="517.29999"
   y1="518.40002"
   x2="517.29999"
   y2="8.1000004"
   id="line759" />
	</g>
	<g
   id="CIRCLE_00000126318994553995022910000006744794943185574561_">
		<circle
   class="st0"
   cx="22.700001"
   cy="263.29999"
   r="4.3000002"
   id="circle762" />
	</g>
</g>
<g
   id="g929"
   transform="matrix(1.3314995,0,0,1.327632,0.14750367,7.7795172)">
	<g
   id="LINE_00000149372205971845368080000004086118774492614572_">
		<line
   class="st0"
   x1="389.70001"
   y1="524.40002"
   x2="474.79999"
   y2="524.40002"
   id="line767" />
	</g>
	<g
   id="LINE_00000062889290704945751480000005456844688132128180_">
		<line
   class="st0"
   x1="134.60001"
   y1="524.40002"
   x2="49.599998"
   y2="524.40002"
   id="line770" />
	</g>
	<g
   id="LINE">
		<line
   class="st0"
   x1="497.5"
   y1="552.79999"
   x2="508.79999"
   y2="552.79999"
   id="line773" />
	</g>
	<g
   id="LINE_00000064316664860286926820000003392243110567026594_">
		<line
   class="st0"
   x1="508.79999"
   y1="552.79999"
   x2="508.79999"
   y2="666.09998"
   id="line776" />
	</g>
	<g
   id="LINE_00000164511792785539385160000016624531638629933749_">
		<line
   class="st0"
   x1="508.79999"
   y1="666.09998"
   x2="497.5"
   y2="666.09998"
   id="line779" />
	</g>
	<g
   id="LINE_00000161607439953086680650000015698271902353637001_">
		<line
   class="st0"
   x1="497.5"
   y1="683.09998"
   x2="497.5"
   y2="666.09998"
   id="line782" />
	</g>
	<g
   id="LINE_00000066494468754659054780000001907773147994854288_">
		<line
   class="st0"
   x1="497.5"
   y1="552.79999"
   x2="497.5"
   y2="535.70001"
   id="line785" />
	</g>
	<g
   id="LINE_00000052083543567211836740000014195648667846270904_">
		<line
   class="st0"
   x1="15.6"
   y1="666.09998"
   x2="26.9"
   y2="666.09998"
   id="line788" />
	</g>
	<g
   id="LINE_00000170254739495074854960000002652066202762927007_">
		<line
   class="st0"
   x1="26.9"
   y1="552.79999"
   x2="15.6"
   y2="552.79999"
   id="line791" />
	</g>
	<g
   id="LINE_00000038412123397550606370000005142099480009275532_">
		<line
   class="st0"
   x1="15.6"
   y1="552.79999"
   x2="15.6"
   y2="666.09998"
   id="line794" />
	</g>
	<g
   id="LINE_00000134231117674358922400000015586322491759965880_">
		<line
   class="st0"
   x1="26.9"
   y1="535.70001"
   x2="26.9"
   y2="552.79999"
   id="line797" />
	</g>
	<g
   id="LINE_00000003800394614151934340000005100488997803061130_">
		<line
   class="st0"
   x1="26.9"
   y1="666.09998"
   x2="26.9"
   y2="683.09998"
   id="line800" />
	</g>
	<g
   id="LINE_00000159453323731405927960000002934674669565690262_">
		<line
   class="st0"
   x1="389.70001"
   y1="535.70001"
   x2="389.70001"
   y2="524.40002"
   id="line803" />
	</g>
	<g
   id="LINE_00000093857108049806617390000017181030855231537079_">
		<line
   class="st0"
   x1="474.79999"
   y1="524.40002"
   x2="474.79999"
   y2="535.70001"
   id="line806" />
	</g>
	<g
   id="LINE_00000081606634325867534660000007814733464008795056_">
		<line
   class="st0"
   x1="497.5"
   y1="535.70001"
   x2="474.79999"
   y2="535.70001"
   id="line809" />
	</g>
	<g
   id="LINE_00000103254999981330038190000003767720221904663230_">
		<line
   class="st0"
   x1="134.60001"
   y1="535.70001"
   x2="134.60001"
   y2="524.40002"
   id="line812" />
	</g>
	<g
   id="LINE_00000064346315742451153590000002680345485543794052_">
		<line
   class="st0"
   x1="49.599998"
   y1="524.40002"
   x2="49.599998"
   y2="535.70001"
   id="line815" />
	</g>
	<g
   id="LINE_00000076568175441791509460000014835874830674808717_">
		<line
   class="st0"
   x1="49.599998"
   y1="535.70001"
   x2="26.9"
   y2="535.70001"
   id="line818" />
	</g>
	<g
   id="LINE_00000081630878605334361210000001331993518289763257_">
		<line
   class="st0"
   x1="389.70001"
   y1="683.09998"
   x2="389.70001"
   y2="694.5"
   id="line821" />
	</g>
	<g
   id="LINE_00000015355522979803251260000001358620939114583424_">
		<line
   class="st0"
   x1="389.70001"
   y1="694.5"
   x2="474.79999"
   y2="694.5"
   id="line824" />
	</g>
	<g
   id="LINE_00000119119793483180652770000013967472920619822263_">
		<line
   class="st0"
   x1="474.79999"
   y1="694.5"
   x2="474.79999"
   y2="683.09998"
   id="line827" />
	</g>
	<g
   id="LINE_00000120544648473643267360000015872365653970399883_">
		<line
   class="st0"
   x1="134.60001"
   y1="683.09998"
   x2="134.60001"
   y2="694.5"
   id="line830" />
	</g>
	<g
   id="LINE_00000050634807681513997480000010834805396911267994_">
		<line
   class="st0"
   x1="49.599998"
   y1="694.5"
   x2="49.599998"
   y2="683.09998"
   id="line833" />
	</g>
	<g
   id="LINE_00000023265120384162448700000005963433793474456192_">
		<line
   class="st0"
   x1="134.60001"
   y1="694.5"
   x2="49.599998"
   y2="694.5"
   id="line836" />
	</g>
	<g
   id="LINE_00000183960522739448889750000017350962699745010362_">
		<line
   class="st0"
   x1="474.79999"
   y1="683.09998"
   x2="497.5"
   y2="683.09998"
   id="line839" />
	</g>
	<g
   id="LINE_00000148654463500618251390000018413653302621265047_">
		<line
   class="st0"
   x1="26.9"
   y1="683.09998"
   x2="49.599998"
   y2="683.09998"
   id="line842" />
	</g>
	<g
   id="LINE_00000045589791793719109710000013184056507546507396_">
		<line
   class="st0"
   x1="266.39999"
   y1="683.09998"
   x2="266.39999"
   y2="674.59998"
   id="line845" />
	</g>
	<g
   id="LINE_00000144316230590925403260000011365144519021450377_">
		<line
   class="st0"
   x1="266.39999"
   y1="674.59998"
   x2="270"
   y2="674.59998"
   id="line848" />
	</g>
	<g
   id="LINE_00000072271215441838917300000016159721168322594182_">
		<line
   class="st0"
   x1="270"
   y1="674.59998"
   x2="270"
   y2="667.59998"
   id="line851" />
	</g>
	<g
   id="LINE_00000119110777456795467910000011472633904689957787_">
		<line
   class="st0"
   x1="270"
   y1="667.59998"
   x2="266.39999"
   y2="667.59998"
   id="line854" />
	</g>
	<g
   id="LINE_00000181062346442115162170000007559336679377177275_">
		<line
   class="st0"
   x1="266.39999"
   y1="667.59998"
   x2="266.39999"
   y2="663.29999"
   id="line857" />
	</g>
	<g
   id="LINE_00000093159282273599468920000014928335331570257307_">
		<line
   class="st0"
   x1="266.39999"
   y1="663.29999"
   x2="262.20001"
   y2="663.29999"
   id="line860" />
	</g>
	<g
   id="LINE_00000004525200591518676110000017060053204609391518_">
		<line
   class="st0"
   x1="254.39999"
   y1="674.59998"
   x2="254.39999"
   y2="667.59998"
   id="line863" />
	</g>
	<g
   id="LINE_00000081639638625205075950000001505659663258169497_">
		<line
   class="st0"
   x1="257.89999"
   y1="674.59998"
   x2="254.39999"
   y2="674.59998"
   id="line866" />
	</g>
	<g
   id="LINE_00000020365512894144478640000004629459794296210617_">
		<line
   class="st0"
   x1="254.39999"
   y1="667.59998"
   x2="257.89999"
   y2="667.59998"
   id="line869" />
	</g>
	<g
   id="LINE_00000052063763363444583610000007135779883733211564_">
		<line
   class="st0"
   x1="257.89999"
   y1="667.59998"
   x2="257.89999"
   y2="663.29999"
   id="line872" />
	</g>
	<g
   id="LINE_00000142162646544980216170000001784784333481400962_">
		<line
   class="st0"
   x1="257.89999"
   y1="683.09998"
   x2="257.89999"
   y2="674.59998"
   id="line875" />
	</g>
	<g
   id="LINE_00000003073657221213844900000007522667596050765975_">
		<line
   class="st0"
   x1="257.89999"
   y1="663.29999"
   x2="262.20001"
   y2="663.29999"
   id="line878" />
	</g>
	<g
   id="LINE_00000033368838818782062750000004166999873678332315_">
		<line
   class="st0"
   x1="270"
   y1="551.29999"
   x2="266.39999"
   y2="551.29999"
   id="line881" />
	</g>
	<g
   id="LINE_00000163757539116533063370000005837463362138779559_">
		<line
   class="st0"
   x1="257.89999"
   y1="535.70001"
   x2="257.89999"
   y2="544.29999"
   id="line884" />
	</g>
	<g
   id="LINE_00000005242854908377592520000018283148733875216794_">
		<line
   class="st0"
   x1="266.39999"
   y1="551.29999"
   x2="266.39999"
   y2="555.59998"
   id="line887" />
	</g>
	<g
   id="LINE_00000039126857402479353260000001700238092115015871_">
		<line
   class="st0"
   x1="257.89999"
   y1="551.29999"
   x2="257.89999"
   y2="555.59998"
   id="line890" />
	</g>
	<g
   id="LINE_00000002385562614948440990000014460045599863068580_">
		<line
   class="st0"
   x1="257.89999"
   y1="544.29999"
   x2="254.39999"
   y2="544.29999"
   id="line893" />
	</g>
	<g
   id="LINE_00000117634911805376756510000015185738463985200289_">
		<line
   class="st0"
   x1="270"
   y1="544.29999"
   x2="270"
   y2="551.29999"
   id="line896" />
	</g>
	<g
   id="LINE_00000071535215547294026640000006839821749723932605_">
		<line
   class="st0"
   x1="254.39999"
   y1="544.29999"
   x2="254.39999"
   y2="551.29999"
   id="line899" />
	</g>
	<g
   id="LINE_00000022543748070926302240000009098247318234830761_">
		<line
   class="st0"
   x1="266.39999"
   y1="544.29999"
   x2="270"
   y2="544.29999"
   id="line902" />
	</g>
	<g
   id="LINE_00000096761002947282544090000005412978268962764691_">
		<line
   class="st0"
   x1="254.39999"
   y1="551.29999"
   x2="257.89999"
   y2="551.29999"
   id="line905" />
	</g>
	<g
   id="LINE_00000119098736350533690250000001961004138295248539_">
		<line
   class="st0"
   x1="266.39999"
   y1="555.59998"
   x2="262.20001"
   y2="555.59998"
   id="line908" />
	</g>
	<g
   id="LINE_00000065791459502006341110000002561922564773757580_">
		<line
   class="st0"
   x1="257.89999"
   y1="555.59998"
   x2="262.20001"
   y2="555.59998"
   id="line911" />
	</g>
	<g
   id="LINE_00000072985329538878586710000016479805468603033750_">
		<line
   class="st0"
   x1="266.39999"
   y1="535.70001"
   x2="266.39999"
   y2="544.29999"
   id="line914" />
	</g>
	<g
   id="LINE_00000077290706529666870330000009097979084010778277_">
		<line
   class="st0"
   x1="389.70001"
   y1="535.70001"
   x2="266.39999"
   y2="535.70001"
   id="line917" />
	</g>
	<g
   id="LINE_00000077300658646299543930000008088393291023550646_">
		<line
   class="st0"
   x1="257.89999"
   y1="535.70001"
   x2="134.60001"
   y2="535.70001"
   id="line920" />
	</g>
	<g
   id="LINE_00000103947229596596521690000006106943173967119753_">
		<line
   class="st0"
   x1="134.60001"
   y1="683.09998"
   x2="257.89999"
   y2="683.09998"
   id="line923" />
	</g>
	<g
   id="LINE_00000042721110664844403580000005229535186033868476_">
		<line
   class="st0"
   x1="266.39999"
   y1="683.09998"
   x2="389.70001"
   y2="683.09998"
   id="line926" />
	</g>
</g>
<g
   id="g1093"
   transform="matrix(1.3314995,0,0,1.3276274,0.14750406,14.294135)">
	<g
   id="LINE_00000032627804993669065160000013586258670753098413_">
		<line
   class="st0"
   x1="497.5"
   y1="731.29999"
   x2="508.79999"
   y2="731.29999"
   id="line931" />
	</g>
	<g
   id="LINE_00000057838528226231972850000014112819829970864261_">
		<line
   class="st0"
   x1="508.79999"
   y1="731.29999"
   x2="508.79999"
   y2="844.70001"
   id="line934" />
	</g>
	<g
   id="LINE_00000152949223576969904520000011628682701651879852_">
		<line
   class="st0"
   x1="508.79999"
   y1="844.70001"
   x2="497.5"
   y2="844.70001"
   id="line937" />
	</g>
	<g
   id="LINE_00000001654107111009707670000005736545596485226631_">
		<line
   class="st0"
   x1="497.5"
   y1="861.70001"
   x2="497.5"
   y2="844.70001"
   id="line940" />
	</g>
	<g
   id="LINE_00000088091329112439753370000005230363152773281439_">
		<line
   class="st0"
   x1="497.5"
   y1="731.29999"
   x2="497.5"
   y2="714.29999"
   id="line943" />
	</g>
	<g
   id="LINE_00000101072712250380458850000008461531505870336404_">
		<line
   class="st0"
   x1="15.6"
   y1="844.70001"
   x2="26.9"
   y2="844.70001"
   id="line946" />
	</g>
	<g
   id="LINE_00000104665380652307050000000003422447266725373626_">
		<line
   class="st0"
   x1="26.9"
   y1="731.29999"
   x2="15.6"
   y2="731.29999"
   id="line949" />
	</g>
	<g
   id="LINE_00000125564286012700213240000008113510819465463480_">
		<line
   class="st0"
   x1="15.6"
   y1="731.29999"
   x2="15.6"
   y2="844.70001"
   id="line952" />
	</g>
	<g
   id="LINE_00000112629359438959226520000007735436180011901573_">
		<line
   class="st0"
   x1="26.9"
   y1="714.29999"
   x2="26.9"
   y2="731.29999"
   id="line955" />
	</g>
	<g
   id="LINE_00000065762398538060769250000004799919133549294000_">
		<line
   class="st0"
   x1="26.9"
   y1="844.70001"
   x2="26.9"
   y2="861.70001"
   id="line958" />
	</g>
	<g
   id="LINE_00000019640709147100653120000000480391815032951484_">
		<line
   class="st0"
   x1="389.70001"
   y1="714.29999"
   x2="389.70001"
   y2="703"
   id="line961" />
	</g>
	<g
   id="LINE_00000012431537142846287490000010341217410990308798_">
		<line
   class="st0"
   x1="389.70001"
   y1="703"
   x2="474.79999"
   y2="703"
   id="line964" />
	</g>
	<g
   id="LINE_00000018216026462817704770000014106395036878180761_">
		<line
   class="st0"
   x1="474.79999"
   y1="703"
   x2="474.79999"
   y2="714.29999"
   id="line967" />
	</g>
	<g
   id="LINE_00000065036281106629558800000008559336846185641372_">
		<line
   class="st0"
   x1="497.5"
   y1="714.29999"
   x2="474.79999"
   y2="714.29999"
   id="line970" />
	</g>
	<g
   id="LINE_00000023978331788162167580000003333117716396386454_">
		<line
   class="st0"
   x1="134.60001"
   y1="714.29999"
   x2="134.60001"
   y2="703"
   id="line973" />
	</g>
	<g
   id="LINE_00000173157316438702409550000017975034586370339516_">
		<line
   class="st0"
   x1="49.599998"
   y1="703"
   x2="49.599998"
   y2="714.29999"
   id="line976" />
	</g>
	<g
   id="LINE_00000169548728585544253530000001492426336412192919_">
		<line
   class="st0"
   x1="134.60001"
   y1="703"
   x2="49.599998"
   y2="703"
   id="line979" />
	</g>
	<g
   id="LINE_00000134970766935276515380000012465924825130960317_">
		<line
   class="st0"
   x1="49.599998"
   y1="714.29999"
   x2="26.9"
   y2="714.29999"
   id="line982" />
	</g>
	<g
   id="LINE_00000104687986899602474630000005286712624822209193_">
		<line
   class="st0"
   x1="389.70001"
   y1="861.70001"
   x2="389.70001"
   y2="873.09998"
   id="line985" />
	</g>
	<g
   id="LINE_00000048494403377796686750000001296561604241754012_">
		<line
   class="st0"
   x1="389.70001"
   y1="873.09998"
   x2="474.79999"
   y2="873.09998"
   id="line988" />
	</g>
	<g
   id="LINE_00000020389230676792009710000012270478306076012204_">
		<line
   class="st0"
   x1="474.79999"
   y1="873.09998"
   x2="474.79999"
   y2="861.70001"
   id="line991" />
	</g>
	<g
   id="LINE_00000148637732825044301310000015699713522486902921_">
		<line
   class="st0"
   x1="134.60001"
   y1="861.70001"
   x2="134.60001"
   y2="873.09998"
   id="line994" />
	</g>
	<g
   id="LINE_00000125574671057426610350000017102727877939700900_">
		<line
   class="st0"
   x1="49.599998"
   y1="873.09998"
   x2="49.599998"
   y2="861.70001"
   id="line997" />
	</g>
	<g
   id="LINE_00000090254735754728814970000004456048994009887113_">
		<line
   class="st0"
   x1="134.60001"
   y1="873.09998"
   x2="49.599998"
   y2="873.09998"
   id="line1000" />
	</g>
	<g
   id="LINE_00000179628709480158969560000001206567240476812717_">
		<line
   class="st0"
   x1="474.79999"
   y1="861.70001"
   x2="497.5"
   y2="861.70001"
   id="line1003" />
	</g>
	<g
   id="LINE_00000067205354800789760640000018209855783527858054_">
		<line
   class="st0"
   x1="26.9"
   y1="861.70001"
   x2="49.599998"
   y2="861.70001"
   id="line1006" />
	</g>
	<g
   id="LINE_00000173152800399654613130000017045504528959207345_">
		<line
   class="st0"
   x1="266.39999"
   y1="861.70001"
   x2="266.39999"
   y2="853.20001"
   id="line1009" />
	</g>
	<g
   id="LINE_00000147903769787543884830000005235757945535510182_">
		<line
   class="st0"
   x1="266.39999"
   y1="853.20001"
   x2="270"
   y2="853.20001"
   id="line1012" />
	</g>
	<g
   id="LINE_00000033345145222618942500000002152823010000010421_">
		<line
   class="st0"
   x1="270"
   y1="853.20001"
   x2="270"
   y2="846.09998"
   id="line1015" />
	</g>
	<g
   id="LINE_00000005240215016279339860000001522434468833126803_">
		<line
   class="st0"
   x1="270"
   y1="846.09998"
   x2="266.39999"
   y2="846.09998"
   id="line1018" />
	</g>
	<g
   id="LINE_00000039121399183058442770000004401158148903026065_">
		<line
   class="st0"
   x1="266.39999"
   y1="846.09998"
   x2="266.39999"
   y2="841.90002"
   id="line1021" />
	</g>
	<g
   id="LINE_00000074415826491446113220000014054584321050137487_">
		<line
   class="st0"
   x1="266.39999"
   y1="841.90002"
   x2="262.20001"
   y2="841.90002"
   id="line1024" />
	</g>
	<g
   id="LINE_00000039126155500804725760000013495441057102649261_">
		<line
   class="st0"
   x1="254.39999"
   y1="853.20001"
   x2="254.39999"
   y2="846.09998"
   id="line1027" />
	</g>
	<g
   id="LINE_00000133527462204230624640000013833499351990057391_">
		<line
   class="st0"
   x1="257.89999"
   y1="853.20001"
   x2="254.39999"
   y2="853.20001"
   id="line1030" />
	</g>
	<g
   id="LINE_00000060021826050765759740000004243784122136393866_">
		<line
   class="st0"
   x1="254.39999"
   y1="846.09998"
   x2="257.89999"
   y2="846.09998"
   id="line1033" />
	</g>
	<g
   id="LINE_00000177455230191464197240000016467832527288851355_">
		<line
   class="st0"
   x1="257.89999"
   y1="846.09998"
   x2="257.89999"
   y2="841.90002"
   id="line1036" />
	</g>
	<g
   id="LINE_00000142172132960474965100000014831323423295452855_">
		<line
   class="st0"
   x1="257.89999"
   y1="861.70001"
   x2="257.89999"
   y2="853.20001"
   id="line1039" />
	</g>
	<g
   id="LINE_00000141439038548461227800000000370866805073373593_">
		<line
   class="st0"
   x1="257.89999"
   y1="841.90002"
   x2="262.20001"
   y2="841.90002"
   id="line1042" />
	</g>
	<g
   id="LINE_00000178909345630427577170000010677052712937977519_">
		<line
   class="st0"
   x1="270"
   y1="729.90002"
   x2="266.39999"
   y2="729.90002"
   id="line1045" />
	</g>
	<g
   id="LINE_00000155118381354205017370000010465593113993643401_">
		<line
   class="st0"
   x1="257.89999"
   y1="714.29999"
   x2="257.89999"
   y2="722.79999"
   id="line1048" />
	</g>
	<g
   id="LINE_00000079470956967566171710000013926125244542359736_">
		<line
   class="st0"
   x1="266.39999"
   y1="729.90002"
   x2="266.39999"
   y2="734.20001"
   id="line1051" />
	</g>
	<g
   id="LINE_00000029767545687879728900000014482850130466088842_">
		<line
   class="st0"
   x1="257.89999"
   y1="729.90002"
   x2="257.89999"
   y2="734.20001"
   id="line1054" />
	</g>
	<g
   id="LINE_00000067943667611177290390000017353199407043290000_">
		<line
   class="st0"
   x1="257.89999"
   y1="722.79999"
   x2="254.39999"
   y2="722.79999"
   id="line1057" />
	</g>
	<g
   id="LINE_00000061460943738546538320000016392775333275261111_">
		<line
   class="st0"
   x1="270"
   y1="722.79999"
   x2="270"
   y2="729.90002"
   id="line1060" />
	</g>
	<g
   id="LINE_00000049192197886400655650000005932992778291322038_">
		<line
   class="st0"
   x1="254.39999"
   y1="722.79999"
   x2="254.39999"
   y2="729.90002"
   id="line1063" />
	</g>
	<g
   id="LINE_00000072242041152212654580000003572111820713514398_">
		<line
   class="st0"
   x1="266.39999"
   y1="722.79999"
   x2="270"
   y2="722.79999"
   id="line1066" />
	</g>
	<g
   id="LINE_00000174565279828447384590000007621794314068317867_">
		<line
   class="st0"
   x1="254.39999"
   y1="729.90002"
   x2="257.89999"
   y2="729.90002"
   id="line1069" />
	</g>
	<g
   id="LINE_00000089566022342454214770000007708514624372801950_">
		<line
   class="st0"
   x1="266.39999"
   y1="734.20001"
   x2="262.20001"
   y2="734.20001"
   id="line1072" />
	</g>
	<g
   id="LINE_00000036959776870959119140000007839353671409921169_">
		<line
   class="st0"
   x1="257.89999"
   y1="734.20001"
   x2="262.20001"
   y2="734.20001"
   id="line1075" />
	</g>
	<g
   id="LINE_00000096775004038162071680000017885075365551146940_">
		<line
   class="st0"
   x1="266.39999"
   y1="714.29999"
   x2="266.39999"
   y2="722.79999"
   id="line1078" />
	</g>
	<g
   id="LINE_00000182500057693897916460000018411455627861883320_">
		<line
   class="st0"
   x1="389.70001"
   y1="714.29999"
   x2="266.39999"
   y2="714.29999"
   id="line1081" />
	</g>
	<g
   id="LINE_00000166653981699831533480000001523670675663025597_">
		<line
   class="st0"
   x1="257.89999"
   y1="714.29999"
   x2="134.60001"
   y2="714.29999"
   id="line1084" />
	</g>
	<g
   id="LINE_00000152954680306750106420000010547309458646429113_">
		<line
   class="st0"
   x1="134.60001"
   y1="861.70001"
   x2="257.89999"
   y2="861.70001"
   id="line1087" />
	</g>
	<g
   id="LINE_00000030452044592232371160000015974268839568728481_">
		<line
   class="st0"
   x1="266.39999"
   y1="861.70001"
   x2="389.70001"
   y2="861.70001"
   id="line1090" />
	</g>
</g>
<g
   id="g1113"
   transform="matrix(1.3313204,0,0,1.3276276,0.5642245,20.806155)">
	<g
   id="LWPOLYLINE_00000054235347978873696070000010635964402815566006_">
		<polygon
   class="st0"
   points="265.9,892.9 389.2,892.9 389.2,881.6 474.2,881.6 474.2,892.9 516.8,892.9 516.8,1040.3 474.2,1040.3 474.2,1051.7 389.2,1051.7 389.2,1040.3 265.9,1040.3 265.9,1031.8 269.4,1031.8 269.4,1024.7 265.9,1024.7 265.9,1020.5 257.4,1020.5 257.4,1024.7 253.8,1024.7 253.8,1031.8 257.4,1031.8 257.4,1040.3 134.1,1040.3 134.1,1051.7 49,1051.7 49,1040.3 6.5,1040.3 6.5,892.9 49,892.9 49,881.6 134.1,881.6 134.1,892.9 257.4,892.9 257.4,901.4 253.8,901.4 253.8,908.5 257.4,908.5 257.4,912.8 265.9,912.8 265.9,908.5 269.4,908.5 269.4,901.4 265.9,901.4 "
   id="polygon1095" />
	</g>
	<g
   id="CIRCLE_00000083795777473187868250000015544410160036866983_">
		<circle
   class="st0"
   cx="108.6"
   cy="966.59998"
   r="14.2"
   id="circle1098" />
	</g>
	<g
   id="LWPOLYLINE_00000103956225119338945300000003942389506101834405_">
		<rect
   x="219.10001"
   y="969.40002"
   class="st0"
   width="85"
   height="11.3"
   id="rect1101" />
	</g>
	<g
   id="LWPOLYLINE_00000160185902234153608020000003338182922417857417_">
		<rect
   x="15"
   y="909.90002"
   class="st0"
   width="11.3"
   height="113.4"
   id="rect1104" />
	</g>
	<g
   id="LWPOLYLINE_00000022562566101139339110000007572732877594268045_">
		<rect
   x="496.89999"
   y="909.90002"
   class="st0"
   width="11.3"
   height="113.4"
   id="rect1107" />
	</g>
	<g
   id="CIRCLE_00000140700612946022068600000002167621334695141262_">
		<circle
   class="st0"
   cx="414.70001"
   cy="966.59998"
   r="8.5"
   id="circle1110" />
	</g>
</g>
<g
   id="g1157"
   transform="matrix(1.3315783,0,0,1.3315783,-5.6770004,-2.3403355)">
	<g
   id="LWPOLYLINE_00000130648707319796762530000008761282904621819292_">
		<rect
   x="532.09998"
   y="8.1000004"
   class="st0"
   width="510.20001"
   height="510.20001"
   id="rect1115" />
	</g>
	<g
   id="CIRCLE_00000164490414199969494270000007878359598166599351_">
		<circle
   class="st0"
   cx="787.20001"
   cy="263.29999"
   r="170.10001"
   id="circle1118" />
	</g>
	<g
   id="LWPOLYLINE_00000057854385744193051620000001079376903253732795_">
		<rect
   x="574.59998"
   y="16.6"
   class="st0"
   width="85"
   height="11.3"
   id="rect1121" />
	</g>
	<g
   id="LWPOLYLINE_00000128482375460761593030000004437387811756843396_">
		<rect
   x="914.70001"
   y="16.6"
   class="st0"
   width="85"
   height="11.3"
   id="rect1124" />
	</g>
	<g
   id="LWPOLYLINE_00000054265229446520706960000016522600586363201470_">
		<rect
   x="540.59998"
   y="50.700001"
   class="st0"
   width="11.3"
   height="85"
   id="rect1127" />
	</g>
	<g
   id="LWPOLYLINE_00000058577691988802565000000003676353995742695346_">
		<rect
   x="574.59998"
   y="498.5"
   class="st0"
   width="85"
   height="11.3"
   id="rect1130" />
	</g>
	<g
   id="LWPOLYLINE_00000178924902221197658200000010155180363858999711_">
		<rect
   x="914.70001"
   y="498.5"
   class="st0"
   width="85"
   height="11.3"
   id="rect1133" />
	</g>
	<g
   id="LWPOLYLINE_00000076586039414294985820000010643235425183214513_">
		<rect
   x="540.59998"
   y="390.79999"
   class="st0"
   width="11.3"
   height="85"
   id="rect1136" />
	</g>
	<g
   id="LWPOLYLINE_00000180332882912494798640000007407435204873449392_">
		<rect
   x="1022.4"
   y="50.700001"
   class="st0"
   width="11.3"
   height="85"
   id="rect1139" />
	</g>
	<g
   id="LWPOLYLINE_00000104706216088605047340000009386054068539051157_">
		<rect
   x="1022.4"
   y="390.79999"
   class="st0"
   width="11.3"
   height="85"
   id="rect1142" />
	</g>
	<g
   id="CIRCLE_00000176012341547309087640000005974884769655006131_">
		<circle
   class="st0"
   cx="787.20001"
   cy="505.60001"
   r="4.3000002"
   id="circle1145" />
	</g>
	<g
   id="CIRCLE_00000098916801350938610920000006746187989948563341_">
		<circle
   class="st0"
   cx="787.20001"
   cy="20.9"
   r="4.3000002"
   id="circle1148" />
	</g>
	<g
   id="CIRCLE_00000109745032252532180190000006579952671337995694_">
		<circle
   class="st0"
   cx="1029.5"
   cy="263.29999"
   r="4.3000002"
   id="circle1151" />
	</g>
	<g
   id="CIRCLE_00000006684189681129350190000007777893600878254483_">
		<circle
   class="st0"
   cx="544.79999"
   cy="263.29999"
   r="4.3000002"
   id="circle1154" />
	</g>
</g>
<g
   id="g1246"
   transform="matrix(1.3314728,0,0,1.3314968,-7.190461,5.4219989)">
	<g
   id="CIRCLE_00000153666441746549739220000002223888078052979371_">
		<circle
   class="st0"
   cx="666"
   cy="670.70001"
   r="4.3000002"
   id="circle1159" />
	</g>
	<g
   id="CIRCLE_00000035491786310458454700000011020674837216645285_">
		<circle
   class="st0"
   cx="868.70001"
   cy="670.70001"
   r="4.3000002"
   id="circle1162" />
	</g>
	<g
   id="CIRCLE_00000171719722507899111660000002066042851983327634_">
		<circle
   class="st0"
   cx="868.70001"
   cy="873.29999"
   r="4.3000002"
   id="circle1165" />
	</g>
	<g
   id="CIRCLE_00000157300600295162046200000016556540571151281801_">
		<circle
   class="st0"
   cx="666"
   cy="873.29999"
   r="4.3000002"
   id="circle1168" />
	</g>
	<g
   id="CIRCLE_00000106849161540700032830000011367704693035799952_">
		<circle
   class="st0"
   cx="767.29999"
   cy="772"
   r="113.4"
   id="circle1171" />
	</g>
	<g
   id="LINE_00000029009238048366505480000003076589767017336488_">
		<line
   class="st0"
   x1="809.79999"
   y1="536.70001"
   x2="809.79999"
   y2="525.40002"
   id="line1174" />
	</g>
	<g
   id="LINE_00000183948731766240721670000012362237283548472216_">
		<line
   class="st0"
   x1="809.79999"
   y1="525.40002"
   x2="724.79999"
   y2="525.40002"
   id="line1177" />
	</g>
	<g
   id="LINE_00000147930097802580877740000017095159632894129085_">
		<line
   class="st0"
   x1="724.79999"
   y1="525.40002"
   x2="724.79999"
   y2="536.70001"
   id="line1180" />
	</g>
	<g
   id="LINE_00000020384985320692401830000000201014205815655575_">
		<line
   class="st0"
   x1="809.79999"
   y1="1007.3"
   x2="809.79999"
   y2="1018.6"
   id="line1183" />
	</g>
	<g
   id="LINE_00000155124302410177227550000016365667931732908700_">
		<line
   class="st0"
   x1="809.79999"
   y1="1018.6"
   x2="724.79999"
   y2="1018.6"
   id="line1186" />
	</g>
	<g
   id="LINE_00000165934880680329830900000014560888350632342947_">
		<line
   class="st0"
   x1="724.79999"
   y1="1018.6"
   x2="724.79999"
   y2="1007.3"
   id="line1189" />
	</g>
	<g
   id="LINE_00000079445259143598521840000001883682589491916223_">
		<line
   class="st0"
   x1="532.09998"
   y1="536.70001"
   x2="724.79999"
   y2="536.70001"
   id="line1192" />
	</g>
	<g
   id="LINE_00000031901243168263734380000017758736136749553330_">
		<line
   class="st0"
   x1="809.79999"
   y1="536.70001"
   x2="1002.6"
   y2="536.70001"
   id="line1195" />
	</g>
	<g
   id="LINE_00000096025222150679507890000014251925824055333271_">
		<line
   class="st0"
   x1="532.09998"
   y1="1007.3"
   x2="532.09998"
   y2="536.70001"
   id="line1198" />
	</g>
	<g
   id="LINE_00000129889204242336206050000004738642994547418301_">
		<line
   class="st0"
   x1="1002.6"
   y1="536.70001"
   x2="1002.6"
   y2="627.40002"
   id="line1201" />
	</g>
	<g
   id="LINE_00000124149171872474559750000000935455725468644792_">
		<line
   class="st0"
   x1="1002.6"
   y1="910.90002"
   x2="1002.6"
   y2="1007.3"
   id="line1204" />
	</g>
	<g
   id="LINE_00000040566346059707065130000012317262908779862709_">
		<line
   class="st0"
   x1="1002.6"
   y1="627.40002"
   x2="945.90002"
   y2="627.40002"
   id="line1207" />
	</g>
	<g
   id="LINE_00000114049739687398472390000008424595651557867177_">
		<line
   class="st0"
   x1="945.90002"
   y1="627.40002"
   x2="945.90002"
   y2="910.90002"
   id="line1210" />
	</g>
	<g
   id="LINE_00000043446736383694408790000009451922895550867108_">
		<line
   class="st0"
   x1="945.90002"
   y1="910.90002"
   x2="1002.6"
   y2="910.90002"
   id="line1213" />
	</g>
	<g
   id="LINE_00000020356674547637646220000005500699098100271242_">
		<line
   class="st0"
   x1="645.40002"
   y1="1007.3"
   x2="645.40002"
   y2="950.59998"
   id="line1216" />
	</g>
	<g
   id="LINE_00000051364007329929324400000001893428752067872905_">
		<line
   class="st0"
   x1="645.40002"
   y1="950.59998"
   x2="588.70001"
   y2="950.59998"
   id="line1219" />
	</g>
	<g
   id="LINE_00000040563072846020297210000003270999338571671689_">
		<line
   class="st0"
   x1="588.70001"
   y1="950.59998"
   x2="588.70001"
   y2="1007.3"
   id="line1222" />
	</g>
	<g
   id="LINE_00000012431044479101338080000005191587511579053749_">
		<line
   class="st0"
   x1="945.90002"
   y1="1007.3"
   x2="945.90002"
   y2="950.59998"
   id="line1225" />
	</g>
	<g
   id="LINE_00000101804970538624515270000015830066024807302061_">
		<line
   class="st0"
   x1="945.90002"
   y1="950.59998"
   x2="889.20001"
   y2="950.59998"
   id="line1228" />
	</g>
	<g
   id="LINE_00000029024736858977225340000017619321455810824586_">
		<line
   class="st0"
   x1="889.20001"
   y1="950.59998"
   x2="889.20001"
   y2="1007.3"
   id="line1231" />
	</g>
	<g
   id="LINE_00000108285430202332237280000008864166105336508298_">
		<line
   class="st0"
   x1="1002.6"
   y1="1007.3"
   x2="945.90002"
   y2="1007.3"
   id="line1234" />
	</g>
	<g
   id="LINE_00000042732024590765722530000001859423012250500490_">
		<line
   class="st0"
   x1="889.20001"
   y1="1007.3"
   x2="809.79999"
   y2="1007.3"
   id="line1237" />
	</g>
	<g
   id="LINE_00000010990524737173324770000010121933246563052701_">
		<line
   class="st0"
   x1="724.79999"
   y1="1007.3"
   x2="645.40002"
   y2="1007.3"
   id="line1240" />
	</g>
	<g
   id="LINE_00000023243823744635912940000009474736409281098379_">
		<line
   class="st0"
   x1="588.70001"
   y1="1007.3"
   x2="532.09998"
   y2="1007.3"
   id="line1243" />
	</g>
</g>
<g
   id="g1269"
   transform="matrix(1.331581,0,0,1.3276271,-2.0466304,17.846285)">
	<g
   id="LWPOLYLINE_00000083077221557896111370000014607268675440334225_">
		<polygon
   class="st0"
   points="914.7,1025.6 999.8,1025.6 999.8,1037 1042.3,1037 1042.3,1184.4 999.8,1184.4 999.8,1195.7 914.7,1195.7 914.7,1184.4 791.4,1184.4 791.4,1175.9 795,1175.9 795,1168.8 791.4,1168.8 791.4,1164.5 782.9,1164.5 782.9,1168.8 779.4,1168.8 779.4,1175.9 782.9,1175.9 782.9,1184.4 659.6,1184.4 659.6,1195.7 574.6,1195.7 574.6,1184.4 532.1,1184.4 532.1,1037 574.6,1037 574.6,1025.6 659.6,1025.6 659.6,1037 782.9,1037 782.9,1045.5 779.4,1045.5 779.4,1052.6 782.9,1052.6 782.9,1056.8 791.4,1056.8 791.4,1052.6 795,1052.6 795,1045.5 791.4,1045.5 791.4,1037 914.7,1037 "
   id="polygon1248" />
	</g>
	<g
   id="LWPOLYLINE_00000164504647959274154550000013301903061845223564_">
		<rect
   x="744.59998"
   y="1113.5"
   class="st0"
   width="85"
   height="11.3"
   id="rect1251" />
	</g>
	<g
   id="LWPOLYLINE_00000109732967677801131570000002705286277164004528_">
		<rect
   x="930.59998"
   y="1131.9"
   class="st0"
   width="53.299999"
   height="36.900002"
   id="rect1254" />
	</g>
	<g
   id="CIRCLE_00000139261548723299945790000015698074776527188356_">
		<circle
   class="st0"
   cx="617.09998"
   cy="1150.3"
   r="11.3"
   id="circle1257" />
	</g>
	<g
   id="LWPOLYLINE_00000076584990012548705400000003329540160477641868_">
		<rect
   x="540.59998"
   y="1054"
   class="st0"
   width="11.3"
   height="113.4"
   id="rect1260" />
	</g>
	<g
   id="LINE_00000016768386308725650550000016264562922962252710_">
		<line
   class="st0"
   x1="659.59998"
   y1="1195.7"
   x2="574.59998"
   y2="1195.7"
   id="line1263" />
	</g>
	<g
   id="LWPOLYLINE_00000057864621108194135730000000229000194982411700_">
		<rect
   x="1022.4"
   y="1054"
   class="st0"
   width="11.3"
   height="113.4"
   id="rect1266" />
	</g>
</g>
</svg>
